control3min_grf.mot
version=1
nRows=12
nColumns 19
inDegrees=yes
endheader
time	1_ground_force_vx	1_ground_force_vy	1_ground_force_vz	1_ground_force_px	1_ground_force_py	1_ground_force_pz	1_ground_torque_x	1_ground_torque_y	1_ground_torque_z	2_ground_force_vx	2_ground_force_vy	2_ground_force_vz	2_ground_force_px	2_ground_force_py	2_ground_force_pz	2_ground_torque_x	2_ground_torque_y	2_ground_torque_z
            0.005000	          -44.318900	          860.258941	         -131.571626	           -0.218292	            0.005731	           -0.289897	           -0.296217	            5.749768	           -0.879394	           -9.707232	         1011.740160	          195.738790	           -0.228812	            0.005670	           -0.701104	            0.080753	           -8.416517	           -1.628322
            0.005500	          -44.502123	          858.816976	         -131.623222	           -0.218189	            0.005731	           -0.289996	           -0.291346	            5.622501	           -0.861711	          -10.445141	         1008.603699	          196.619565	           -0.228636	            0.005670	           -0.701023	            0.085351	           -8.241682	           -1.606653
            0.006000	          -44.593908	          858.096289	         -131.717790	           -0.217945	            0.005731	           -0.290014	           -0.296445	            5.704323	           -0.875614	          -10.952391	         1006.391024	          196.893453	           -0.228433	            0.005671	           -0.701120	            0.088726	           -8.152793	           -1.595038
            0.006500	          -44.640315	          858.097263	         -131.946952	           -0.217957	            0.005731	           -0.289978	           -0.293293	            5.637821	           -0.866910	          -11.317536	         1003.808733	          197.682198	           -0.228239	            0.005672	           -0.701170	            0.091117	           -8.081665	           -1.591539
            0.007000	          -44.685492	          857.555505	         -131.719882	           -0.217690	            0.005731	           -0.290034	           -0.293302	            5.628736	           -0.864570	          -11.778519	         1001.779759	          198.144466	           -0.228062	            0.005673	           -0.701218	            0.093425	           -7.945955	           -1.571650
            0.007500	          -44.638212	          855.931126	         -131.268401	           -0.217506	            0.005731	           -0.289902	           -0.293493	            5.627677	           -0.863079	          -12.246915	         1001.777231	          198.379283	           -0.227917	            0.005675	           -0.701571	            0.095486	           -7.810600	           -1.546712
            0.008000	          -44.867459	          854.849820	         -131.364174	           -0.217456	            0.005731	           -0.289929	           -0.293979	            5.601117	           -0.860720	          -12.472942	          999.564688	          198.934636	           -0.227717	            0.005675	           -0.701597	            0.097150	           -7.785450	           -1.549470
            0.008500	          -44.683030	          854.667912	         -130.952687	           -0.217324	            0.005731	           -0.289890	           -0.290245	            5.551620	           -0.850622	          -12.698408	          997.168659	          199.254713	           -0.227641	            0.005675	           -0.701524	            0.098052	           -7.699735	           -1.538565
            0.009000	          -44.637739	          855.209474	         -131.133921	           -0.217271	            0.005731	           -0.289809	           -0.288065	            5.519007	           -0.846259	          -13.534292	          995.139168	          199.482462	           -0.227386	            0.005677	           -0.701740	            0.103054	           -7.577266	           -1.518915
            0.009500	          -44.590809	          853.585685	         -130.819981	           -0.217156	            0.005731	           -0.289880	           -0.286724	            5.488663	           -0.841189	          -13.718142	          994.215886	          199.995488	           -0.227303	            0.005678	           -0.701844	            0.103052	           -7.468673	           -1.502391
            0.010000	          -43.995010	          853.225723	         -130.914741	           -0.217036	            0.005730	           -0.289702	           -0.287392	            5.573588	           -0.855184	          -14.268796	          991.081395	          200.547695	           -0.227115	            0.005679	           -0.701842	            0.105616	           -7.335848	           -1.484426
            0.010500	          -43.856977	          852.323801	         -130.781375	           -0.216909	            0.005730	           -0.289670	           -0.291099	            5.657259	           -0.868055	          -14.403405	          989.423895	          200.447969	           -0.226978	            0.005680	           -0.702019	            0.106302	           -7.302250	           -1.479367
